<svg xmlns="http://www.w3.org/2000/svg" width="800" height="800" viewBox="0 0 800 800" role="img" aria-labelledby="title desc">
  <title id="title">Prof. Nak Young Chong portrait placeholder</title>
  <desc id="desc">Abstract portrait placeholder for the Chong Lab director.</desc>
  <defs>
    <linearGradient id="bg" x1="0" y1="0" x2="1" y2="1">
      <stop offset="0%" stop-color="#0d1117" />
      <stop offset="100%" stop-color="#161b22" />
    </linearGradient>
    <radialGradient id="glow" cx="50%" cy="32%" r="58%">
      <stop offset="0%" stop-color="#00d4aa" stop-opacity="0.35" />
      <stop offset="100%" stop-color="#00d4aa" stop-opacity="0" />
    </radialGradient>
  </defs>
  <rect width="800" height="800" rx="48" fill="url(#bg)" />
  <rect width="800" height="800" rx="48" fill="url(#glow)" />
  <circle cx="400" cy="322" r="128" fill="#e6edf3" opacity="0.92" />
  <path d="M216 642c23-107 109-172 184-172s161 65 184 172" fill="#e6edf3" opacity="0.92" />
  <circle cx="354" cy="302" r="10" fill="#0d1117" />
  <circle cx="446" cy="302" r="10" fill="#0d1117" />
  <path d="M360 355c21 18 59 18 80 0" stroke="#0d1117" stroke-width="10" stroke-linecap="round" fill="none" />
  <path d="M260 180h280l-28 86H288z" fill="#00d4aa" opacity="0.9" />
  <path d="M288 180c38 34 78 52 112 52 35 0 77-18 140-52" stroke="#0d1117" stroke-width="14" stroke-linecap="round" fill="none" opacity="0.35" />
</svg>
